<svg width="48" height="48" viewBox="0 0 48 48" fill="none" xmlns="http://www.w3.org/2000/svg">
<path fill-rule="evenodd" clip-rule="evenodd" d="M24 4C35.0457 4 44 12.9543 44 24C44 35.0457 35.0457 44 24 44C12.9543 44 4 35.0457 4 24C4 12.9543 12.9543 4 24 4ZM24 5.5C13.7827 5.5 5.5 13.7827 5.5 24C5.5 34.2173 13.7827 42.5 24 42.5C34.2173 42.5 42.5 34.2173 42.5 24C42.5 13.7827 34.2173 5.5 24 5.5ZM34 19.4286C34 16.4305 31.5695 14 28.5714 14H19.4286C16.4305 14 14 16.4305 14 19.4286V28.5714C14 31.5695 16.4305 34 19.4286 34H28.5714C31.5695 34 34 31.5695 34 28.5714V19.4286ZM19.4285 15.7126H28.5714C30.6227 15.7126 32.2857 17.3756 32.2857 19.4269V28.5698C32.2857 30.6211 30.6227 32.284 28.5714 32.284H19.4285C17.3772 32.284 15.7143 30.6211 15.7143 28.5698V19.4269C15.7143 17.3756 17.3772 15.7126 19.4285 15.7126ZM24 19.7126C21.633 19.7126 19.7143 21.6314 19.7143 23.9983C19.7143 26.3653 21.633 28.284 24 28.284C26.3669 28.284 28.2857 26.3653 28.2857 23.9983C28.2857 21.6314 26.3669 19.7126 24 19.7126ZM23.9999 21.4252C25.4201 21.4252 26.5714 22.5765 26.5714 23.9967C26.5714 25.4168 25.4201 26.5681 23.9999 26.5681C22.5798 26.5681 21.4285 25.4168 21.4285 23.9967C21.4285 22.5765 22.5798 21.4252 23.9999 21.4252ZM29.1429 18C29.5768 18 29.9354 18.3225 29.9922 18.7408L30 18.8571C30 19.3317 29.6163 19.7154 29.1429 19.7154C28.7089 19.7154 28.3503 19.393 28.2936 18.9746L28.2857 18.8583C28.2857 18.3838 28.6695 18 29.1429 18Z" fill="#212121"/>
</svg>
